{"asset":{"version":"2.0","generator":"Blockbench 3.9.2 glTF exporter"},"scenes":[{"nodes":[0,1],"name":"blockbench_export"}],"scene":0,"nodes":[{"rotation":[0.13052619222005157,0,0,0.9914448613738104],"translation":[0,0,-0.4375],"name":"c9fa1356-7d6e-fe30-d944-2481d0289fe9","mesh":0},{"rotation":[0.1736481776669303,0,0,0.984807753012208],"translation":[0,0,-0.4375],"name":"2eb8b65c-1f5b-b014-b56b-dffbc9524f96","mesh":1}],"bufferViews":[{"buffer":0,"byteOffset":0,"byteLength":432,"target":34962,"byteStride":12},{"buffer":0,"byteOffset":432,"byteLength":432,"target":34962,"byteStride":12},{"buffer":0,"byteOffset":864,"byteLength":288,"target":34962,"byteStride":8},{"buffer":0,"byteOffset":1152,"byteLength":432,"target":34962,"byteStride":12},{"buffer":0,"byteOffset":1584,"byteLength":432,"target":34962,"byteStride":12},{"buffer":0,"byteOffset":2016,"byteLength":288,"target":34962,"byteStride":8},{"buffer":0,"byteOffset":2304,"byteLength":12,"target":34963},{"buffer":0,"byteOffset":2316,"byteLength":12,"target":34963},{"buffer":0,"byteOffset":2328,"byteLength":12,"target":34963},{"buffer":0,"byteOffset":2340,"byteLength":12,"target":34963},{"buffer":0,"byteOffset":2352,"byteLength":12,"target":34963},{"buffer":0,"byteOffset":2364,"byteLength":12,"target":34963}],"buffers":[{"byteLength":2376,"uri":"data:application/octet-stream;base64,"}],"accessors":[{"bufferView":0,"componentType":5126,"count":36,"max":[0.125,1,0.1875],"min":[-0.125,0,-0.0625],"type":"VEC3"},{"bufferView":1,"componentType":5126,"count":36,"max":[1,1,1],"min":[-1,-1,-1],"type":"VEC3"},{"bufferView":2,"componentType":5126,"count":36,"max":[1,1],"min":[0,0],"type":"VEC2"},{"bufferView":3,"componentType":5126,"count":36,"max":[0.5,1.9375,0.5],"min":[-0.5,0.9375,-0.5],"type":"VEC3"},{"bufferView":4,"componentType":5126,"count":36,"max":[1,1,1],"min":[-1,-1,-1],"type":"VEC3"},{"bufferView":5,"componentType":5126,"count":36,"max":[1,1],"min":[0,0],"type":"VEC2"},{"bufferView":6,"componentType":5123,"count":6,"max":[5],"min":[0],"type":"SCALAR"},{"bufferView":7,"componentType":5123,"count":6,"max":[11],"min":[6],"type":"SCALAR"},{"bufferView":8,"componentType":5123,"count":6,"max":[17],"min":[12],"type":"SCALAR"},{"bufferView":9,"componentType":5123,"count":6,"max":[23],"min":[18],"type":"SCALAR"},{"bufferView":10,"componentType":5123,"count":6,"max":[29],"min":[24],"type":"SCALAR"},{"bufferView":11,"componentType":5123,"count":6,"max":[35],"min":[30],"type":"SCALAR"}],"materials":[{"pbrMetallicRoughness":{"metallicFactor":0,"roughnessFactor":1,"baseColorTexture":{"index":0}},"alphaMode":"MASK","alphaCutoff":0.05,"doubleSided":true},{"pbrMetallicRoughness":{"metallicFactor":0,"roughnessFactor":1,"baseColorTexture":{"index":1}},"alphaMode":"MASK","alphaCutoff":0.05,"doubleSided":true},{"pbrMetallicRoughness":{"metallicFactor":0,"roughnessFactor":1,"baseColorTexture":{"index":2}},"alphaMode":"MASK","alphaCutoff":0.05,"doubleSided":true},{"pbrMetallicRoughness":{"metallicFactor":0,"roughnessFactor":1,"baseColorTexture":{"index":3}},"alphaMode":"MASK","alphaCutoff":0.05,"doubleSided":true},{"pbrMetallicRoughness":{"metallicFactor":0,"roughnessFactor":1,"baseColorTexture":{"index":4}},"alphaMode":"MASK","alphaCutoff":0.05,"doubleSided":true}],"textures":[{"sampler":0,"source":0,"name":"wood.png"},{"sampler":1,"source":1,"name":"right_side.png"},{"sampler":2,"source":2,"name":"front.png"},{"sampler":3,"source":3,"name":"top.png"},{"sampler":4,"source":4,"name":"bottom.png"}],"samplers":[{"magFilter":9728,"minFilter":9728,"wrapS":33071,"wrapT":33071},{"magFilter":9728,"minFilter":9728,"wrapS":33071,"wrapT":33071},{"magFilter":9728,"minFilter":9728,"wrapS":33071,"wrapT":33071},{"magFilter":9728,"minFilter":9728,"wrapS":33071,"wrapT":33071},{"magFilter":9728,"minFilter":9728,"wrapS":33071,"wrapT":33071}],"images":[{"mimeType":"image/png","uri":"data:image/png;base64,"},{"mimeType":"image/png","uri":"data:image/png;base64,"},{"mimeType":"image/png","uri":"data:image/png;base64,"},{"mimeType":"image/png","uri":"data:image/png;base64,"},{"mimeType":"image/png","uri":"data:image/png;base64,"}],"meshes":[{"primitives":[{"mode":4,"attributes":{"POSITION":0,"NORMAL":1,"TEXCOORD_0":2},"material":0}]},{"primitives":[{"mode":4,"attributes":{"POSITION":3,"NORMAL":4,"TEXCOORD_0":5},"indices":6,"material":1},{"mode":4,"attributes":{"POSITION":3,"NORMAL":4,"TEXCOORD_0":5},"indices":7,"material":2},{"mode":4,"attributes":{"POSITION":3,"NORMAL":4,"TEXCOORD_0":5},"indices":8,"material":3},{"mode":4,"attributes":{"POSITION":3,"NORMAL":4,"TEXCOORD_0":5},"indices":9,"material":4},{"mode":4,"attributes":{"POSITION":3,"NORMAL":4,"TEXCOORD_0":5},"indices":10,"material":1},{"mode":4,"attributes":{"POSITION":3,"NORMAL":4,"TEXCOORD_0":5},"indices":11,"material":1}]}]}